<?xml version="1.0" encoding="UTF-8" ?>
<!DOCTYPE svg PUBLIC "-//W3C//DTD SVG 1.1//EN" "http://www.w3.org/Graphics/SVG/1.1/DTD/svg11.dtd">
<svg width="748pt" height="131pt" viewBox="0 0 748 131" version="1.1" xmlns="http://www.w3.org/2000/svg">
<path fill="#add3c6" d=" M 0.00 0.00 L 747.40 0.00 C 745.97 1.35 746.41 3.60 748.00 4.64 L 748.00 131.00 L 747.03 131.00 L 747.02 129.96 C 746.91 118.70 747.05 107.44 746.96 96.18 C 737.69 95.82 728.66 98.20 719.44 98.60 C 719.35 101.21 719.27 103.82 719.20 106.44 C 716.90 106.38 714.62 106.32 712.33 106.25 C 713.46 101.15 713.74 95.92 713.66 90.71 C 706.29 89.74 698.82 89.97 691.47 88.86 C 690.42 87.68 689.36 86.50 688.31 85.33 C 687.79 87.43 687.27 89.54 686.73 91.64 C 683.12 87.83 681.96 82.41 678.55 78.55 C 673.89 77.06 668.90 77.59 664.09 77.31 C 657.53 77.00 650.94 77.12 644.49 78.43 C 643.99 79.74 643.50 81.04 643.01 82.35 C 639.62 82.65 636.23 82.95 632.85 83.25 C 631.96 87.83 631.28 92.45 630.80 97.09 C 624.78 97.30 618.75 97.43 612.73 97.59 C 611.47 99.14 610.22 100.69 608.97 102.25 C 603.74 102.27 598.52 102.28 593.30 102.29 C 592.71 103.72 592.13 105.16 591.55 106.60 C 587.84 106.63 584.13 106.66 580.43 106.68 C 580.16 104.55 579.89 102.43 579.64 100.31 C 576.18 99.67 572.63 98.46 569.10 99.21 C 565.50 100.31 562.55 102.76 559.40 104.72 C 559.18 102.17 558.97 99.63 558.77 97.08 C 557.59 96.62 556.41 96.16 555.25 95.70 C 554.18 91.15 553.10 86.61 551.65 82.17 C 548.64 87.37 549.57 94.14 544.96 98.52 C 544.91 100.32 544.88 102.11 544.85 103.91 C 535.53 103.85 526.19 104.85 516.91 103.48 C 516.98 98.35 517.56 93.17 516.80 88.07 C 516.74 86.77 515.39 86.17 514.42 85.62 C 508.59 82.68 501.11 82.65 495.75 86.63 C 495.01 92.08 495.79 97.62 495.57 103.10 C 490.67 104.28 485.88 106.16 482.15 109.66 C 480.28 109.74 478.42 109.81 476.57 109.87 C 476.25 105.04 475.66 100.22 474.81 95.45 C 472.22 95.79 469.54 95.92 467.10 96.93 C 466.39 102.13 466.83 107.39 466.77 112.63 C 462.33 112.66 457.90 112.66 453.46 112.64 C 451.29 109.72 448.45 106.89 448.20 103.05 C 447.32 94.18 447.94 85.21 446.66 76.37 C 445.33 66.23 445.98 55.96 444.56 45.83 C 444.45 42.37 443.21 37.91 446.43 35.43 C 450.22 32.00 454.45 29.10 458.25 25.67 C 455.83 25.18 453.40 24.70 450.98 24.24 C 452.37 23.41 453.75 22.57 455.16 21.73 C 452.43 21.31 449.70 20.92 446.97 20.55 C 449.04 19.83 451.10 19.08 453.17 18.30 C 449.57 17.47 445.90 17.10 442.23 16.93 C 441.85 11.70 440.96 6.50 439.03 1.60 C 437.71 6.79 436.76 12.06 436.01 17.36 C 433.05 17.32 430.09 17.27 427.14 17.22 C 426.14 19.64 425.15 22.06 424.17 24.50 C 423.13 25.11 422.09 25.73 421.06 26.35 C 425.29 29.97 430.41 32.72 433.78 37.23 C 434.75 44.40 433.70 51.73 433.25 58.93 C 431.63 70.22 432.21 81.66 431.00 92.98 C 430.47 98.01 430.41 103.08 429.76 108.09 C 422.04 105.89 413.93 105.79 405.99 106.49 C 401.63 106.98 397.39 108.55 392.96 108.19 C 382.58 107.48 372.48 104.76 362.28 102.84 C 353.86 101.24 345.52 99.22 337.17 97.27 C 335.17 98.32 333.16 99.37 331.15 100.39 C 332.17 99.33 333.19 98.28 334.22 97.22 C 307.10 92.31 280.12 86.63 253.02 81.57 C 252.98 84.15 252.94 86.73 252.91 89.31 C 268.31 92.72 283.89 95.32 299.30 98.72 C 308.30 100.34 317.31 101.96 326.23 104.02 C 326.82 102.42 327.42 100.82 328.02 99.23 C 327.81 103.35 327.55 107.48 327.33 111.60 C 327.06 109.59 326.87 107.56 326.36 105.59 C 322.46 103.89 318.16 103.49 314.02 102.66 C 293.54 98.60 273.04 94.66 252.59 90.42 C 252.89 93.04 252.80 95.76 253.61 98.30 C 257.18 99.56 260.95 100.16 264.57 101.29 C 260.68 100.87 256.82 100.19 252.98 99.45 C 253.00 102.00 253.02 104.55 253.04 107.10 C 260.18 108.68 267.44 109.73 274.48 111.70 C 267.16 111.61 260.11 109.49 252.96 108.17 C 253.02 108.91 253.13 110.39 253.19 111.13 C 254.75 111.30 256.32 111.46 257.88 111.62 C 256.92 112.98 255.95 114.34 254.99 115.70 C 255.04 114.77 255.13 112.90 255.17 111.97 C 254.45 111.81 253.01 111.47 252.28 111.30 C 252.19 103.18 252.05 95.05 252.25 86.93 C 252.36 83.57 251.66 80.27 250.69 77.08 C 249.96 78.79 249.26 80.51 248.57 82.23 C 218.69 88.90 188.98 96.36 159.14 103.26 C 142.90 107.54 126.37 110.66 110.23 115.28 C 105.58 116.44 100.75 116.34 96.00 116.40 C 84.13 116.37 72.26 116.69 60.40 116.30 C 60.50 114.81 60.61 113.31 60.71 111.82 C 55.84 110.98 50.89 110.90 45.96 111.15 C 39.19 111.76 33.79 106.06 27.01 106.60 C 21.39 107.08 16.33 110.03 10.71 110.64 C 10.41 111.03 9.81 111.80 9.51 112.19 C 6.80 112.89 4.09 113.59 1.39 114.32 C 1.75 119.41 1.85 124.64 0.00 129.49 L 0.00 0.00 Z" />
<path fill="#fae8d0" d=" M 747.40 0.00 L 748.00 0.00 L 748.00 4.64 C 746.41 3.60 745.97 1.35 747.40 0.00 Z" />
<path fill="#fae8d0" d=" M 436.01 17.36 C 436.76 12.06 437.71 6.79 439.03 1.60 C 440.96 6.50 441.85 11.70 442.23 16.93 C 445.90 17.10 449.57 17.47 453.17 18.30 C 451.10 19.08 449.04 19.83 446.97 20.55 C 449.70 20.92 452.43 21.31 455.16 21.73 C 453.75 22.57 452.37 23.41 450.98 24.24 C 453.40 24.70 455.83 25.18 458.25 25.67 C 454.45 29.10 450.22 32.00 446.43 35.43 C 443.21 37.91 444.45 42.37 444.56 45.83 C 445.98 55.96 445.33 66.23 446.66 76.37 C 447.94 85.21 447.32 94.18 448.20 103.05 C 448.45 106.89 451.29 109.72 453.46 112.64 C 457.90 112.66 462.33 112.66 466.77 112.63 C 466.83 107.39 466.39 102.13 467.10 96.93 C 469.54 95.92 472.22 95.79 474.81 95.45 C 475.66 100.22 476.25 105.04 476.57 109.87 C 478.42 109.81 480.28 109.74 482.15 109.66 C 485.88 106.16 490.67 104.28 495.57 103.10 C 495.79 97.62 495.01 92.08 495.75 86.63 C 501.11 82.65 508.59 82.68 514.42 85.62 C 515.39 86.17 516.74 86.77 516.80 88.07 C 517.56 93.17 516.98 98.35 516.91 103.48 C 526.19 104.85 535.53 103.85 544.85 103.91 C 544.88 102.11 544.91 100.32 544.96 98.52 C 549.57 94.14 548.64 87.37 551.65 82.17 C 553.10 86.61 554.18 91.15 555.25 95.70 C 556.41 96.16 557.59 96.62 558.77 97.08 C 558.97 99.63 559.18 102.17 559.40 104.72 C 562.55 102.76 565.50 100.31 569.10 99.21 C 572.63 98.46 576.18 99.67 579.64 100.31 C 579.89 102.43 580.16 104.55 580.43 106.68 C 584.13 106.66 587.84 106.63 591.55 106.60 C 592.13 105.16 592.71 103.72 593.30 102.29 C 598.52 102.28 603.74 102.27 608.97 102.25 C 610.22 100.69 611.47 99.14 612.73 97.59 C 618.75 97.43 624.78 97.30 630.80 97.09 C 631.28 92.45 631.96 87.83 632.85 83.25 C 636.23 82.95 639.62 82.65 643.01 82.35 C 643.50 81.04 643.99 79.74 644.49 78.43 C 650.94 77.12 657.53 77.00 664.09 77.31 C 668.90 77.59 673.89 77.06 678.55 78.55 C 681.96 82.41 683.12 87.83 686.73 91.64 C 687.27 89.54 687.79 87.43 688.31 85.33 C 689.36 86.50 690.42 87.68 691.47 88.86 C 698.82 89.97 706.29 89.74 713.66 90.71 C 713.74 95.92 713.46 101.15 712.33 106.25 C 714.62 106.32 716.90 106.38 719.20 106.44 C 719.27 103.82 719.35 101.21 719.44 98.60 C 728.66 98.20 737.69 95.82 746.96 96.18 C 747.05 107.44 746.91 118.70 747.02 129.96 C 498.01 129.96 249.01 129.95 0.00 129.97 L 0.00 129.49 C 1.85 124.64 1.75 119.41 1.39 114.32 C 4.09 113.59 6.80 112.89 9.51 112.19 C 9.81 111.80 10.41 111.03 10.71 110.64 C 16.33 110.03 21.39 107.08 27.01 106.60 C 33.79 106.06 39.19 111.76 45.96 111.15 C 50.89 110.90 55.84 110.98 60.71 111.82 C 60.61 113.31 60.50 114.81 60.40 116.30 C 72.26 116.69 84.13 116.37 96.00 116.40 C 100.75 116.34 105.58 116.44 110.23 115.28 C 126.37 110.66 142.90 107.54 159.14 103.26 C 188.98 96.36 218.69 88.90 248.57 82.23 C 249.26 80.51 249.96 78.79 250.69 77.08 C 251.66 80.27 252.36 83.57 252.25 86.93 C 252.05 95.05 252.19 103.18 252.28 111.30 C 253.01 111.47 254.45 111.81 255.17 111.97 C 255.13 112.90 255.04 114.77 254.99 115.70 C 255.95 114.34 256.92 112.98 257.88 111.62 C 256.32 111.46 254.75 111.30 253.19 111.13 C 253.13 110.39 253.02 108.91 252.96 108.17 C 260.11 109.49 267.16 111.61 274.48 111.70 C 267.44 109.73 260.18 108.68 253.04 107.10 C 253.02 104.55 253.00 102.00 252.98 99.45 C 256.82 100.19 260.68 100.87 264.57 101.29 C 260.95 100.16 257.18 99.56 253.61 98.30 C 252.80 95.76 252.89 93.04 252.59 90.42 C 273.04 94.66 293.54 98.60 314.02 102.66 C 318.16 103.49 322.46 103.89 326.36 105.59 C 326.87 107.56 327.06 109.59 327.33 111.60 C 327.55 107.48 327.81 103.35 328.02 99.23 C 327.42 100.82 326.82 102.42 326.23 104.02 C 317.31 101.96 308.30 100.34 299.30 98.72 C 283.89 95.32 268.31 92.72 252.91 89.31 C 252.94 86.73 252.98 84.15 253.02 81.57 C 280.12 86.63 307.10 92.31 334.22 97.22 C 333.19 98.28 332.17 99.33 331.15 100.39 C 333.16 99.37 335.17 98.32 337.17 97.27 C 345.52 99.22 353.86 101.24 362.28 102.84 C 372.48 104.76 382.58 107.48 392.96 108.19 C 397.39 108.55 401.63 106.98 405.99 106.49 C 413.93 105.79 422.04 105.89 429.76 108.09 C 430.41 103.08 430.47 98.01 431.00 92.98 C 432.21 81.66 431.63 70.22 433.25 58.93 C 433.70 51.73 434.75 44.40 433.78 37.23 C 430.41 32.72 425.29 29.97 421.06 26.35 C 422.09 25.73 423.13 25.11 424.17 24.50 C 425.15 22.06 426.14 19.64 427.14 17.22 C 430.09 17.27 433.05 17.32 436.01 17.36 Z" />
<path fill="#ce2127" d=" M 166.71 27.79 C 170.21 27.83 173.72 27.62 177.20 27.95 C 177.44 28.20 177.91 28.72 178.14 28.97 C 178.61 38.83 178.18 48.73 178.33 58.60 C 179.07 58.78 180.54 59.15 181.28 59.33 C 181.26 61.16 181.24 62.99 181.22 64.82 C 176.41 64.95 171.60 64.96 166.79 64.79 C 166.79 63.02 166.78 61.25 166.78 59.48 C 167.28 59.23 168.30 58.72 168.80 58.47 C 168.75 50.62 168.90 42.77 168.74 34.93 C 166.28 33.30 166.86 30.31 166.71 27.79 Z" />
<path fill="#ce2127" d=" M 216.79 28.06 C 224.31 28.49 232.95 26.67 239.38 31.62 C 248.13 39.12 247.78 54.66 238.94 61.95 C 232.59 66.80 224.12 64.26 216.78 64.97 C 216.73 52.67 216.76 40.36 216.79 28.06 Z" />
<path fill="#ce2127" d=" M 263.18 28.16 C 267.99 26.63 273.41 28.55 276.95 31.96 C 284.25 40.49 283.85 54.85 275.30 62.40 C 268.82 68.01 257.78 65.49 253.98 57.96 C 250.15 50.58 250.44 41.07 254.84 34.00 C 256.64 30.96 259.80 28.99 263.18 28.16 Z" />
<path fill="#ce2127" d=" M 289.81 28.10 C 296.21 28.33 302.77 27.40 309.05 29.01 C 313.47 30.08 316.37 34.59 315.75 39.06 C 316.10 43.32 312.46 46.12 309.23 48.09 C 311.47 53.86 314.02 59.50 316.28 65.26 C 314.92 65.08 313.58 64.82 312.26 64.50 C 308.99 59.60 307.89 53.54 304.63 48.63 C 301.08 48.17 297.49 48.45 293.92 48.42 C 293.77 53.93 293.83 59.43 293.82 64.94 C 292.48 64.93 291.14 64.92 289.80 64.91 C 289.78 52.64 289.83 40.37 289.81 28.10 Z" />
<path fill="#ce2127" d=" M 324.26 28.09 C 331.54 28.22 338.83 27.85 346.10 28.23 C 346.68 29.20 347.20 30.20 347.67 31.24 C 341.35 31.66 334.95 30.82 328.67 31.72 C 328.12 35.74 328.46 39.82 328.43 43.87 C 333.70 44.17 339.00 43.81 344.25 44.49 C 344.00 45.18 343.49 46.57 343.24 47.27 C 338.29 47.22 333.34 47.20 328.40 47.30 C 328.40 53.24 328.43 59.19 328.38 65.14 C 327.00 65.05 325.62 64.95 324.25 64.86 C 324.26 52.60 324.26 40.35 324.26 28.09 Z" />
<path fill="#ce2127" d=" M 76.79 38.69 C 79.50 34.36 83.76 30.58 88.97 29.83 C 91.97 29.41 94.44 31.47 97.12 32.42 C 99.66 30.61 102.59 29.86 105.71 30.07 C 105.82 34.77 105.73 39.47 105.79 44.17 C 103.43 44.14 101.07 44.20 98.72 43.97 C 96.95 41.88 96.48 37.79 93.03 38.04 C 91.16 37.90 88.97 38.14 87.94 39.94 C 85.28 44.31 85.00 50.14 87.60 54.61 C 89.29 57.18 92.77 58.50 95.71 57.46 C 98.13 56.59 100.02 54.75 102.01 53.20 C 103.81 55.22 105.61 57.22 107.35 59.29 C 102.68 63.04 97.02 66.20 90.83 65.62 C 83.49 65.53 76.49 60.19 74.99 52.92 C 74.29 48.17 74.21 42.93 76.79 38.69 Z" />
<path fill="#add3c6" d=" M 262.64 31.74 C 265.12 30.85 267.96 30.87 270.46 31.67 C 275.35 34.09 277.42 39.87 277.42 45.04 C 277.62 50.64 276.43 57.11 271.70 60.69 C 266.92 63.80 259.96 61.54 257.76 56.31 C 254.05 48.44 254.63 36.73 262.64 31.74 Z" />
<path fill="#add3c6" d=" M 221.06 31.63 C 226.07 31.79 231.82 30.58 236.10 33.89 C 242.92 39.56 243.16 50.96 237.69 57.62 C 233.61 62.46 226.69 61.30 221.08 61.37 C 220.86 51.46 220.89 41.54 221.06 31.63 Z" />
<path fill="#add3c6" d=" M 294.17 31.72 C 298.89 31.43 303.95 30.80 308.44 32.64 C 313.27 34.81 312.75 42.75 307.92 44.60 C 303.55 46.27 298.75 45.29 294.19 45.53 C 293.82 40.94 293.48 36.29 294.17 31.72 Z" />
<path fill="#ce2127" d=" M 109.29 40.16 C 113.97 40.06 118.67 40.00 123.34 40.36 C 123.35 42.09 123.36 43.82 123.37 45.56 C 122.75 46.19 122.13 46.83 121.52 47.47 C 122.29 49.24 123.05 51.01 123.79 52.80 C 124.23 52.85 125.11 52.95 125.55 53.00 C 126.14 51.33 126.72 49.67 127.29 47.99 C 126.19 45.64 125.24 42.96 126.35 40.41 C 130.26 39.78 134.24 40.11 138.17 40.35 C 138.24 42.28 138.33 44.21 138.45 46.14 C 141.87 43.99 144.72 40.51 148.94 39.99 C 151.67 39.48 154.16 40.87 156.59 41.86 C 158.73 40.71 161.07 40.06 163.46 39.68 C 163.77 43.51 163.74 47.36 163.73 51.20 C 161.40 51.19 159.07 51.18 156.75 51.18 C 156.56 49.61 156.38 48.04 156.20 46.47 C 154.06 46.35 151.92 46.34 149.79 46.43 C 148.89 49.81 147.15 54.07 149.96 57.04 C 152.67 60.31 157.60 58.69 160.33 56.26 C 161.69 57.84 163.06 59.41 164.42 60.98 C 161.00 63.25 157.23 65.40 153.00 65.50 C 147.96 65.93 142.39 63.70 139.95 59.07 C 137.95 55.70 138.74 51.62 138.75 47.91 C 139.37 46.07 137.05 46.28 136.01 45.68 C 132.70 53.47 129.54 61.33 126.19 69.11 C 124.78 72.56 121.89 75.70 118.01 76.14 C 115.02 76.76 112.20 75.37 109.51 74.25 C 110.67 72.48 111.84 70.72 113.01 68.97 C 114.61 69.37 116.20 69.82 117.85 69.91 C 118.99 68.44 119.76 66.74 120.60 65.09 C 116.67 58.66 113.84 51.55 109.30 45.50 C 109.29 43.72 109.28 41.94 109.29 40.16 Z" />
<path fill="#ce2127" d=" M 187.04 43.00 C 192.90 37.78 203.78 38.78 207.59 46.00 C 209.25 48.80 209.03 52.07 208.29 55.10 C 202.84 55.28 197.32 54.53 191.94 55.58 C 192.73 56.97 193.62 58.31 194.50 59.65 C 198.13 59.72 201.76 59.30 205.04 57.63 C 206.28 59.07 207.52 60.51 208.76 61.96 C 203.18 65.38 195.86 67.53 189.72 64.24 C 181.54 60.94 180.43 48.38 187.04 43.00 Z" />
<path fill="#add3c6" d=" M 191.86 50.41 C 192.99 48.32 194.04 45.33 197.06 46.16 C 199.72 45.63 199.84 48.85 200.62 50.56 C 197.70 50.60 194.77 50.56 191.86 50.41 Z" />
<path fill="#add3c6" d=" M 232.77 92.99 C 238.40 91.74 243.92 89.89 249.69 89.36 C 248.26 90.10 246.80 90.83 245.27 91.34 C 215.69 98.26 186.14 105.37 156.57 112.34 C 150.38 113.67 144.34 116.09 137.91 115.78 C 169.42 107.75 201.20 100.79 232.77 92.99 Z" />
<path fill="#add3c6" d=" M 248.74 97.36 C 248.67 99.93 248.64 102.50 248.57 105.07 C 248.42 103.26 248.29 101.44 248.15 99.63 C 245.96 99.93 243.77 100.19 241.59 100.49 C 243.93 99.36 246.35 98.39 248.74 97.36 Z" />
<path fill="#add3c6" d=" M 238.40 100.12 C 239.28 98.74 241.65 100.19 240.52 101.54 C 239.64 102.93 237.27 101.47 238.40 100.12 Z" />
<path fill="#add3c6" d=" M 265.68 101.07 C 266.47 99.91 268.56 101.17 267.75 102.39 C 266.96 103.53 264.86 102.28 265.68 101.07 Z" />
<path fill="#add3c6" d=" M 211.14 118.34 C 223.07 118.27 234.99 118.33 246.92 118.33 C 246.97 121.73 246.91 125.14 246.46 128.52 C 246.13 125.25 246.01 121.97 245.93 118.70 C 234.67 118.67 223.40 118.59 212.14 118.72 C 212.06 122.01 211.95 125.30 211.58 128.57 C 210.97 125.20 210.92 121.75 211.14 118.34 Z" />
<path fill="#add3c6" d=" M 255.13 118.26 C 257.77 118.33 260.41 118.40 263.05 118.52 C 260.76 118.60 258.48 118.67 256.19 118.73 C 256.09 122.03 255.95 125.34 255.47 128.61 C 254.98 125.18 254.97 121.71 255.13 118.26 Z" />
<path fill="#add3c6" d=" M 172.34 122.67 C 173.77 123.17 173.83 126.96 172.38 127.46 C 171.48 126.11 171.46 124.03 172.34 122.67 Z" />
<path fill="#050707" d=" M 0.00 129.97 C 249.01 129.95 498.01 129.96 747.02 129.96 L 747.03 131.00 L 0.00 131.00 L 0.00 129.97 Z" />
</svg>
